<svg width="182" height="174" viewBox="0 0 182 174" fill="none" xmlns="http://www.w3.org/2000/svg">
<path d="M90.9709 22.6523L107.36 73.0941H160.398L117.49 104.269L133.879 154.711L90.9709 123.536L48.0626 154.711L64.4521 104.269L21.5438 73.0941H74.5814L90.9709 22.6523Z" fill="white"/>
<path d="M94.3 21.5703L109.903 69.5938H171.17L162.455 75.9258L121.604 105.605L137.208 153.629L140.536 163.874L131.822 157.542L90.9709 127.861L50.1193 157.542L41.4055 163.874L44.7336 153.629L60.3371 105.605L19.4865 75.9258L10.7717 69.5938H72.0393L87.6418 21.5703L90.9709 11.3262L94.3 21.5703Z" stroke="url(#paint0_linear_193_3)" stroke-opacity="0.2" stroke-width="7"/>
<defs>
<linearGradient id="paint0_linear_193_3" x1="17.9709" y1="95.6523" x2="163.971" y2="95.6523" gradientUnits="userSpaceOnUse">
<stop stop-color="#C84501"/>
<stop offset="1" stop-color="#722801"/>
</linearGradient>
</defs>
</svg>
