<svg width="1440" height="346" viewBox="0 0 1440 346" fill="none" xmlns="http://www.w3.org/2000/svg">
<path d="M174.514 111.747L169.53 112.146L169.898 116.747H174.514V111.747ZM162.529 86.8181L159.294 90.6306L159.308 90.6426L159.323 90.6545L162.529 86.8181ZM107.877 81.225L109.614 85.9138L109.637 85.9051L109.661 85.8961L107.877 81.225ZM95.093 90.0141L91.0793 87.0325L95.093 90.0141ZM90.7784 102.798L95.7711 103.068L95.7754 102.989L95.7772 102.909L90.7784 102.798ZM92.8558 113.505L88.3837 115.741L88.429 115.832L88.4779 115.92L92.8558 113.505ZM100.846 121.974L97.9625 126.059L98.0031 126.088L98.0443 126.116L100.846 121.974ZM134.884 134.119L135.931 129.23L135.911 129.226L135.89 129.222L134.884 134.119ZM161.73 139.872L160.682 144.761L160.694 144.764L161.73 139.872ZM208.232 155.053L206.041 159.547L208.232 155.053ZM239.873 177.266L236.27 180.733L236.281 180.744L236.292 180.755L239.873 177.266ZM257.93 205.71L253.231 207.419L253.239 207.44L253.247 207.461L257.93 205.71ZM264.003 240.227L269.003 240.252L269.003 240.218L269.003 240.184L264.003 240.227ZM247.863 294.879L251.932 297.785L247.863 294.879ZM202.16 328.917L200.333 324.262L200.325 324.266L202.16 328.917ZM56.581 327.958L54.7281 332.602L54.7361 332.605L56.581 327.958ZM7.36222 289.126L3.19033 291.882L3.2 291.897L3.20977 291.911L7.36222 289.126ZM-10.2159 221.69V216.69H-15.2354L-15.2159 221.71L-10.2159 221.69ZM74.1591 221.69L79.152 221.425L78.9002 216.69H74.1591V221.69ZM81.6697 246.939L77.4895 249.682L81.6697 246.939ZM100.526 262.44L98.5349 267.026L98.5458 267.031L98.5567 267.035L100.526 262.44ZM153.58 264.197L155.302 268.892L153.58 264.197ZM168.122 254.449L172.036 257.561L168.122 254.449ZM173.236 240.227L178.235 240.327L178.237 240.224L178.235 240.121L173.236 240.227ZM168.282 227.123L164.388 230.26L164.436 230.32L164.486 230.377L168.282 227.123ZM152.941 216.896L150.955 221.485L150.984 221.497L151.013 221.51L152.941 216.896ZM124.017 208.267L125.088 203.383L125.08 203.381L125.071 203.379L124.017 208.267ZM91.4176 201.236L90.3577 206.122L90.3634 206.123L91.4176 201.236ZM22.8629 169.755L19.5367 173.488L19.5493 173.499L19.5619 173.51L22.8629 169.755ZM-1.90625 109.19L3.09371 109.211L3.0938 109.188L3.09369 109.165L-1.90625 109.19ZM14.7131 54.6981L10.6575 51.7736L10.6538 51.7787L14.7131 54.6981ZM61.5348 18.1036L59.5358 13.5206L59.5269 13.5245L61.5348 18.1036ZM198.964 18.2634L196.88 22.8083L198.964 18.2634ZM243.548 55.6569L239.354 58.3789L239.365 58.395L239.375 58.4111L243.548 55.6569ZM259.528 111.747V116.747H264.553L264.528 111.722L259.528 111.747ZM174.514 111.747L179.498 111.348C178.556 99.5736 174.059 89.9385 165.736 82.9817L162.529 86.8181L159.323 90.6545C165.275 95.6295 168.768 102.614 169.53 112.146L174.514 111.747ZM162.529 86.8181L165.764 83.0055C157.443 75.9455 145.346 72.8692 130.409 72.8692V77.8692V82.8692C144.236 82.8692 153.552 85.7588 159.294 90.6306L162.529 86.8181ZM130.409 77.8692V72.8692C120.893 72.8692 112.721 74.0237 106.094 76.5539L107.877 81.225L109.661 85.8961C114.752 83.952 121.601 82.8692 130.409 82.8692V77.8692ZM107.877 81.225L106.141 76.5363C99.7651 78.8976 94.5851 82.3131 91.0793 87.0325L95.093 90.0141L99.1068 92.9957C101.141 90.2577 104.483 87.8139 109.614 85.9138L107.877 81.225ZM95.093 90.0141L91.0793 87.0325C87.6706 91.6211 85.9084 96.893 85.7796 102.687L90.7784 102.798L95.7772 102.909C95.8615 99.1153 96.9757 95.8645 99.1068 92.9957L95.093 90.0141ZM90.7784 102.798L85.7857 102.528C85.5308 107.243 86.3581 111.69 88.3837 115.741L92.8558 113.505L97.328 111.269C96.1576 108.928 95.5999 106.236 95.7711 103.068L90.7784 102.798ZM92.8558 113.505L88.4779 115.92C90.6294 119.82 93.8766 123.175 97.9625 126.059L100.846 121.974L103.729 117.889C100.571 115.66 98.4914 113.369 97.2337 111.089L92.8558 113.505ZM100.846 121.974L98.0443 126.116C102.114 128.869 107.156 131.276 113.061 133.393L114.749 128.686L116.436 123.979C111.049 122.048 106.822 119.98 103.647 117.833L100.846 121.974ZM114.749 128.686L113.061 133.393C118.988 135.517 125.938 137.386 133.877 139.017L134.884 134.119L135.89 129.222C128.275 127.657 121.802 125.903 116.436 123.979L114.749 128.686ZM134.884 134.119L133.836 139.008L160.682 144.761L161.73 139.872L162.778 134.983L135.931 129.23L134.884 134.119ZM161.73 139.872L160.694 144.764C178.514 148.537 193.606 153.484 206.041 159.547L208.232 155.053L210.424 150.559C197.077 144.051 181.168 138.877 162.766 134.981L161.73 139.872ZM208.232 155.053L206.041 159.547C218.513 165.629 228.55 172.712 236.27 180.733L239.873 177.266L243.475 173.798C234.79 164.774 223.733 157.049 210.424 150.559L208.232 155.053ZM239.873 177.266L236.292 180.755C244.024 188.688 249.65 197.57 253.231 207.419L257.93 205.71L262.629 204.001C258.54 192.757 252.128 182.675 243.453 173.776L239.873 177.266ZM257.93 205.71L253.247 207.461C256.964 217.406 258.901 228.327 259.003 240.27L264.003 240.227L269.003 240.184C268.892 227.199 266.781 215.108 262.614 203.96L257.93 205.71ZM264.003 240.227L259.003 240.202C258.901 260.874 253.748 278.038 243.794 291.973L247.863 294.879L251.932 297.785C263.285 281.89 268.892 262.62 269.003 240.252L264.003 240.227ZM247.863 294.879L243.794 291.973C233.789 305.98 219.396 316.781 200.333 324.262L202.16 328.917L203.987 333.571C224.554 325.499 240.63 313.608 251.932 297.785L247.863 294.879ZM202.16 328.917L200.325 324.266C181.349 331.753 158.302 335.582 131.048 335.582V340.582V345.582C159.192 345.582 183.553 341.634 203.995 333.568L202.16 328.917ZM131.048 340.582V335.582C103.085 335.582 78.9137 331.444 58.4258 323.311L56.581 327.958L54.7361 332.605C76.6488 341.304 102.122 345.582 131.048 345.582V340.582ZM56.581 327.958L58.4339 323.314C38.1983 315.24 22.6267 302.908 11.5147 286.341L7.36222 289.126L3.20977 291.911C15.5352 310.288 32.7761 323.843 54.7281 332.602L56.581 327.958ZM7.36222 289.126L11.5341 286.37C0.597635 269.815 -5.11208 248.365 -5.21595 221.671L-10.2159 221.69L-15.2159 221.71C-15.1067 249.774 -9.09764 273.281 3.19033 291.882L7.36222 289.126ZM-10.2159 221.69V226.69H74.1591V221.69V216.69H-10.2159V221.69ZM74.1591 221.69L69.1662 221.956C69.7351 232.652 72.4298 241.972 77.4895 249.682L81.6697 246.939L85.85 244.196C81.9608 238.269 79.6485 230.757 79.152 221.425L74.1591 221.69ZM81.6697 246.939L77.4895 249.682C82.5426 257.382 89.6216 263.156 98.5349 267.026L100.526 262.44L102.518 257.853C95.2378 254.692 89.7457 250.132 85.85 244.196L81.6697 246.939ZM100.526 262.44L98.5567 267.035C107.524 270.878 117.973 272.713 129.77 272.713V267.713V262.713C118.981 262.713 109.935 261.032 102.496 257.844L100.526 262.44ZM129.77 267.713V272.713C139.625 272.713 148.188 271.5 155.302 268.892L153.58 264.197L151.859 259.503C146.188 261.582 138.878 262.713 129.77 262.713V267.713ZM153.58 264.197L155.302 268.892C162.316 266.32 168.022 262.612 172.036 257.561L168.122 254.449L164.208 251.338C161.618 254.597 157.629 257.387 151.859 259.503L153.58 264.197ZM168.122 254.449L172.036 257.561C176.023 252.545 178.106 246.745 178.235 240.327L173.236 240.227L168.237 240.127C168.152 244.363 166.826 248.045 164.208 251.338L168.122 254.449ZM173.236 240.227L178.235 240.121C178.104 233.982 176.043 228.495 172.078 223.87L168.282 227.123L164.486 230.377C166.913 233.209 168.154 236.458 168.237 240.334L173.236 240.227ZM168.282 227.123L172.176 223.987C168.348 219.236 162.378 215.421 154.869 212.283L152.941 216.896L151.013 221.51C157.779 224.337 162.037 227.341 164.388 230.26L168.282 227.123ZM152.941 216.896L154.927 212.308C147.374 209.038 137.384 206.08 125.088 203.383L124.017 208.267L122.946 213.151C134.939 215.781 144.233 218.575 150.955 221.485L152.941 216.896ZM124.017 208.267L125.071 203.379L92.4718 196.348L91.4176 201.236L90.3634 206.123L122.963 213.155L124.017 208.267ZM91.4176 201.236L92.4775 196.349C64.0656 190.186 42.074 179.984 26.1639 165.999L22.8629 169.755L19.5619 173.51C37.1036 188.929 60.815 199.714 90.3577 206.122L91.4176 201.236ZM22.8629 169.755L26.1892 166.022C10.8044 152.314 2.99216 133.582 3.09371 109.211L-1.90625 109.19L-6.90621 109.169C-7.01773 135.935 1.68282 157.58 19.5367 173.488L22.8629 169.755ZM-1.90625 109.19L3.09369 109.165C2.99208 89.3528 8.25578 72.2404 18.7723 57.6174L14.7131 54.6981L10.6538 51.7787C-1.2018 68.2637 -7.01765 87.4794 -6.90619 109.216L-1.90625 109.19ZM14.7131 54.6981L18.7686 57.6225C29.4751 42.7749 44.3331 31.1062 63.5428 22.6827L61.5348 18.1036L59.5269 13.5245C38.8928 22.5726 22.5363 35.3002 10.6575 51.7736L14.7131 54.6981ZM61.5348 18.1036L63.5338 22.6866C82.8262 14.2718 105.084 9.9999 130.409 9.9999V4.9999V-9.91821e-05C103.959 -9.91821e-05 80.3002 4.46376 59.5358 13.5206L61.5348 18.1036ZM130.409 4.9999V9.9999C156.282 9.9999 178.391 14.33 196.88 22.8083L198.964 18.2634L201.048 13.7185C180.971 4.51212 157.377 -9.91821e-05 130.409 -9.91821e-05V4.9999ZM198.964 18.2634L196.88 22.8083C215.395 31.2988 229.484 43.1707 239.354 58.3789L243.548 55.6569L247.742 52.9349C236.732 35.9697 221.098 22.9127 201.048 13.7185L198.964 18.2634ZM243.548 55.6569L239.375 58.4111C249.325 73.4872 254.426 91.2105 254.528 111.772L259.528 111.747L264.528 111.722C264.418 89.457 258.865 69.7868 247.721 52.9027L243.548 55.6569ZM259.528 111.747V106.747H174.514V111.747V116.747H259.528V111.747ZM288.852 81.0653H283.852V86.0653H288.852V81.0653ZM288.852 9.47433V4.47433H283.852V9.47433H288.852ZM573.298 9.47433H578.298V4.47433H573.298V9.47433ZM573.298 81.0653V86.0653H578.298V81.0653H573.298ZM474.86 81.0653V76.0653H469.86V81.0653H474.86ZM474.86 336.747V341.747H479.86V336.747H474.86ZM387.289 336.747H382.289V341.747H387.289V336.747ZM387.289 81.0653H392.289V76.0653H387.289V81.0653ZM288.852 81.0653H293.852V9.47433H288.852H283.852V81.0653H288.852ZM288.852 9.47433V14.4743H573.298V9.47433V4.47433H288.852V9.47433ZM573.298 9.47433H568.298V81.0653H573.298H578.298V9.47433H573.298ZM573.298 81.0653V76.0653H474.86V81.0653V86.0653H573.298V81.0653ZM474.86 81.0653H469.86V336.747H474.86H479.86V81.0653H474.86ZM474.86 336.747V331.747H387.289V336.747V341.747H474.86V336.747ZM387.289 336.747H392.289V81.0653H387.289H382.289V336.747H387.289ZM387.289 81.0653V76.0653H288.852V81.0653V86.0653H387.289V81.0653ZM606.736 336.747H601.736V341.747H606.736V336.747ZM606.736 9.47433V4.47433H601.736V9.47433H606.736ZM842.603 9.47433H847.603V4.47433H842.603V9.47433ZM842.603 81.0653V86.0653H847.603V81.0653H842.603ZM695.586 81.0653V76.0653H690.586V81.0653H695.586ZM695.586 137.315H690.586V142.315H695.586V137.315ZM830.458 137.315H835.458V132.315H830.458V137.315ZM830.458 208.906V213.906H835.458V208.906H830.458ZM695.586 208.906V203.906H690.586V208.906H695.586ZM695.586 265.156H690.586V270.156H695.586V265.156ZM841.964 265.156H846.964V260.156H841.964V265.156ZM841.964 336.747V341.747H846.964V336.747H841.964ZM606.736 336.747H611.736V9.47433H606.736H601.736V336.747H606.736ZM606.736 9.47433V14.4743H842.603V9.47433V4.47433H606.736V9.47433ZM842.603 9.47433H837.603V81.0653H842.603H847.603V9.47433H842.603ZM842.603 81.0653V76.0653H695.586V81.0653V86.0653H842.603V81.0653ZM695.586 81.0653H690.586V137.315H695.586H700.586V81.0653H695.586ZM695.586 137.315V142.315H830.458V137.315V132.315H695.586V137.315ZM830.458 137.315H825.458V208.906H830.458H835.458V137.315H830.458ZM830.458 208.906V203.906H695.586V208.906V213.906H830.458V208.906ZM695.586 208.906H690.586V265.156H695.586H700.586V208.906H695.586ZM695.586 265.156V270.156H841.964V265.156V260.156H695.586V265.156ZM841.964 265.156H836.964V336.747H841.964H846.964V265.156H841.964ZM841.964 336.747V331.747H606.736V336.747V341.747H841.964V336.747ZM886.668 336.747H881.668V341.747H886.668V336.747ZM886.668 9.47433V4.47433H881.668V9.47433H886.668ZM1091.69 23.8564L1089.36 28.281L1091.69 23.8564ZM1134.2 64.2861L1138.52 61.7684L1134.2 64.2861ZM1133.72 186.055L1129.45 183.455L1129.44 183.465L1129.44 183.474L1133.72 186.055ZM1090.09 225.685L1087.88 221.203L1087.87 221.208L1090.09 225.685ZM940.361 239.588H935.361V244.588H940.361V239.588ZM940.361 170.554V165.554H935.361V170.554H940.361ZM1033.53 165.121L1035.74 169.606L1035.75 169.599L1035.76 169.593L1033.53 165.121ZM1050.62 149.3L1046.32 146.748L1046.31 146.773L1046.3 146.798L1050.62 149.3ZM1050.62 101.2L1046.31 103.732L1046.34 103.773L1046.36 103.813L1050.62 101.2ZM1033.53 85.8593L1031.32 90.3443L1031.35 90.3634L1031.39 90.3819L1033.53 85.8593ZM975.517 80.426V75.426H970.517V80.426H975.517ZM975.517 336.747V341.747H980.517V336.747H975.517ZM886.668 336.747H891.668V9.47433H886.668H881.668V336.747H886.668ZM886.668 9.47433V14.4743H1027.93V9.47433V4.47433H886.668V9.47433ZM1027.93 9.47433V14.4743C1051.56 14.4743 1071.98 19.1334 1089.36 28.281L1091.69 23.8564L1094.02 19.4319C1074.97 9.40334 1052.89 4.47433 1027.93 4.47433V9.47433ZM1091.69 23.8564L1089.36 28.281C1106.77 37.4438 1120.24 50.2689 1129.88 66.8038L1134.2 64.2861L1138.52 61.7684C1127.92 43.5732 1113.05 29.4452 1094.02 19.4319L1091.69 23.8564ZM1134.2 64.2861L1129.88 66.8038C1139.49 83.2925 1144.38 102.691 1144.38 125.17H1149.38H1154.38C1154.38 101.201 1149.15 80.0098 1138.52 61.7684L1134.2 64.2861ZM1149.38 125.17H1144.38C1144.38 147.846 1139.34 167.209 1129.45 183.455L1133.72 186.055L1137.99 188.654C1148.98 170.596 1154.38 149.369 1154.38 125.17H1149.38ZM1133.72 186.055L1129.44 183.474C1119.62 199.77 1105.81 212.338 1087.88 221.203L1090.09 225.685L1092.31 230.168C1111.88 220.495 1127.15 206.643 1138 188.635L1133.72 186.055ZM1090.09 225.685L1087.87 221.208C1070.04 230.071 1049.04 234.588 1024.74 234.588V239.588V244.588C1050.29 244.588 1072.86 239.836 1092.32 230.163L1090.09 225.685ZM1024.74 239.588V234.588H940.361V239.588V244.588H1024.74V239.588ZM940.361 239.588H945.361V170.554H940.361H935.361V239.588H940.361ZM940.361 170.554V175.554H1006.84V170.554V165.554H940.361V170.554ZM1006.84 170.554V175.554C1017.84 175.554 1027.53 173.646 1035.74 169.606L1033.53 165.121L1031.32 160.636C1024.81 163.839 1016.72 165.554 1006.84 165.554V170.554ZM1033.53 165.121L1035.76 169.593C1044.04 165.453 1050.49 159.519 1054.95 151.803L1050.62 149.3L1046.3 146.798C1042.87 152.718 1037.93 157.33 1031.29 160.648L1033.53 165.121ZM1050.62 149.3L1054.92 151.853C1059.5 144.14 1061.7 135.184 1061.7 125.17H1056.7H1051.7C1051.7 133.694 1049.84 140.824 1046.32 146.748L1050.62 149.3ZM1056.7 125.17H1061.7C1061.7 115.068 1059.51 106.13 1054.89 98.5874L1050.62 101.2L1046.36 103.813C1049.83 109.481 1051.7 116.523 1051.7 125.17H1056.7ZM1050.62 101.2L1054.94 98.6681C1050.45 91.0361 1043.97 85.2545 1035.66 81.3366L1033.53 85.8593L1031.39 90.3819C1038 93.4953 1042.91 97.941 1046.31 103.732L1050.62 101.2ZM1033.53 85.8593L1035.74 81.3742C1027.53 77.3335 1017.84 75.426 1006.84 75.426V80.426V85.426C1016.72 85.426 1024.81 87.1407 1031.32 90.3443L1033.53 85.8593ZM1006.84 80.426V75.426H975.517V80.426V85.426H1006.84V80.426ZM975.517 80.426H970.517V336.747H975.517H980.517V80.426H975.517ZM975.517 336.747V331.747H886.668V336.747V341.747H975.517V336.747ZM1358.4 111.747L1353.42 112.146L1353.78 116.747H1358.4V111.747ZM1346.42 86.8181L1343.18 90.6306L1343.2 90.6426L1343.21 90.6545L1346.42 86.8181ZM1291.76 81.225L1293.5 85.9138L1293.52 85.9051L1293.55 85.8961L1291.76 81.225ZM1278.98 90.0141L1274.97 87.0325L1278.98 90.0141ZM1274.67 102.798L1279.66 103.068L1279.66 102.989L1279.66 102.909L1274.67 102.798ZM1276.74 113.505L1272.27 115.741L1272.32 115.832L1272.36 115.92L1276.74 113.505ZM1284.73 121.974L1281.85 126.059L1281.89 126.088L1281.93 126.116L1284.73 121.974ZM1318.77 134.119L1319.82 129.23L1319.8 129.226L1319.78 129.222L1318.77 134.119ZM1345.62 139.872L1344.57 144.761L1344.58 144.764L1345.62 139.872ZM1392.12 155.053L1389.93 159.547L1392.12 155.053ZM1423.76 177.266L1420.16 180.733L1420.17 180.744L1420.18 180.755L1423.76 177.266ZM1441.82 205.71L1437.12 207.419L1437.13 207.44L1437.13 207.461L1441.82 205.71ZM1447.89 240.227L1452.89 240.252L1452.89 240.218L1452.89 240.184L1447.89 240.227ZM1431.75 294.879L1435.82 297.785L1431.75 294.879ZM1386.05 328.917L1384.22 324.262L1384.21 324.266L1386.05 328.917ZM1240.47 327.958L1238.61 332.602L1238.62 332.605L1240.47 327.958ZM1191.25 289.126L1187.08 291.882L1187.09 291.897L1187.1 291.911L1191.25 289.126ZM1173.67 221.69V216.69H1168.65L1168.67 221.71L1173.67 221.69ZM1258.05 221.69L1263.04 221.425L1262.79 216.69H1258.05V221.69ZM1265.56 246.939L1261.38 249.682L1265.56 246.939ZM1284.41 262.44L1282.42 267.026L1282.43 267.031L1282.44 267.035L1284.41 262.44ZM1337.47 264.197L1339.19 268.892L1337.47 264.197ZM1352.01 254.449L1355.92 257.561L1352.01 254.449ZM1357.12 240.227L1362.12 240.327L1362.12 240.224L1362.12 240.121L1357.12 240.227ZM1352.17 227.123L1348.27 230.26L1348.32 230.32L1348.37 230.377L1352.17 227.123ZM1336.83 216.896L1334.84 221.485L1334.87 221.497L1334.9 221.51L1336.83 216.896ZM1307.9 208.267L1308.97 203.383L1308.97 203.381L1308.96 203.379L1307.9 208.267ZM1275.3 201.236L1274.24 206.122L1274.25 206.123L1275.3 201.236ZM1206.75 169.755L1203.42 173.488L1203.44 173.499L1203.45 173.51L1206.75 169.755ZM1181.98 109.19L1186.98 109.211V109.188L1186.98 109.165L1181.98 109.19ZM1198.6 54.6981L1194.54 51.7736L1194.54 51.7787L1198.6 54.6981ZM1245.42 18.1036L1243.42 13.5206L1243.41 13.5245L1245.42 18.1036ZM1382.85 18.2634L1380.77 22.8083L1382.85 18.2634ZM1427.44 55.6569L1423.24 58.3789L1423.25 58.395L1423.26 58.4111L1427.44 55.6569ZM1443.42 111.747V116.747H1448.44L1448.42 111.722L1443.42 111.747ZM1358.4 111.747L1363.39 111.348C1362.44 99.5736 1357.95 89.9385 1349.62 82.9817L1346.42 86.8181L1343.21 90.6545C1349.16 95.6295 1352.65 102.614 1353.42 112.146L1358.4 111.747ZM1346.42 86.8181L1349.65 83.0055C1341.33 75.9455 1329.23 72.8692 1314.3 72.8692V77.8692V82.8692C1328.12 82.8692 1337.44 85.7588 1343.18 90.6306L1346.42 86.8181ZM1314.3 77.8692V72.8692C1304.78 72.8692 1296.61 74.0237 1289.98 76.5539L1291.76 81.225L1293.55 85.8961C1298.64 83.952 1305.49 82.8692 1314.3 82.8692V77.8692ZM1291.76 81.225L1290.03 76.5363C1283.65 78.8976 1278.47 82.3131 1274.97 87.0325L1278.98 90.0141L1282.99 92.9957C1285.03 90.2577 1288.37 87.8139 1293.5 85.9138L1291.76 81.225ZM1278.98 90.0141L1274.97 87.0325C1271.56 91.6211 1269.8 96.893 1269.67 102.687L1274.67 102.798L1279.66 102.909C1279.75 99.1153 1280.86 95.8645 1282.99 92.9957L1278.98 90.0141ZM1274.67 102.798L1269.67 102.528C1269.42 107.243 1270.24 111.69 1272.27 115.741L1276.74 113.505L1281.21 111.269C1280.04 108.928 1279.49 106.236 1279.66 103.068L1274.67 102.798ZM1276.74 113.505L1272.36 115.92C1274.52 119.82 1277.76 123.175 1281.85 126.059L1284.73 121.974L1287.62 117.889C1284.46 115.66 1282.38 113.369 1281.12 111.089L1276.74 113.505ZM1284.73 121.974L1281.93 126.116C1286 128.869 1291.04 131.276 1296.95 133.393L1298.64 128.686L1300.32 123.979C1294.94 122.048 1290.71 119.98 1287.53 117.833L1284.73 121.974ZM1298.64 128.686L1296.95 133.393C1302.87 135.517 1309.82 137.386 1317.76 139.017L1318.77 134.119L1319.78 129.222C1312.16 127.657 1305.69 125.903 1300.32 123.979L1298.64 128.686ZM1318.77 134.119L1317.72 139.008L1344.57 144.761L1345.62 139.872L1346.66 134.983L1319.82 129.23L1318.77 134.119ZM1345.62 139.872L1344.58 144.764C1362.4 148.537 1377.49 153.484 1389.93 159.547L1392.12 155.053L1394.31 150.559C1380.96 144.051 1365.05 138.877 1346.65 134.981L1345.62 139.872ZM1392.12 155.053L1389.93 159.547C1402.4 165.629 1412.44 172.712 1420.16 180.733L1423.76 177.266L1427.36 173.798C1418.68 164.774 1407.62 157.049 1394.31 150.559L1392.12 155.053ZM1423.76 177.266L1420.18 180.755C1427.91 188.688 1433.54 197.57 1437.12 207.419L1441.82 205.71L1446.52 204.001C1442.43 192.757 1436.01 182.675 1427.34 173.776L1423.76 177.266ZM1441.82 205.71L1437.13 207.461C1440.85 217.406 1442.79 228.327 1442.89 240.27L1447.89 240.227L1452.89 240.184C1452.78 227.199 1450.67 215.108 1446.5 203.96L1441.82 205.71ZM1447.89 240.227L1442.89 240.202C1442.79 260.874 1437.63 278.038 1427.68 291.973L1431.75 294.879L1435.82 297.785C1447.17 281.89 1452.78 262.62 1452.89 240.252L1447.89 240.227ZM1431.75 294.879L1427.68 291.973C1417.68 305.98 1403.28 316.781 1384.22 324.262L1386.05 328.917L1387.87 333.571C1408.44 325.499 1424.52 313.608 1435.82 297.785L1431.75 294.879ZM1386.05 328.917L1384.21 324.266C1365.24 331.753 1342.19 335.582 1314.94 335.582V340.582V345.582C1343.08 345.582 1367.44 341.634 1387.88 333.568L1386.05 328.917ZM1314.94 340.582V335.582C1286.97 335.582 1262.8 331.444 1242.31 323.311L1240.47 327.958L1238.62 332.605C1260.54 341.304 1286.01 345.582 1314.94 345.582V340.582ZM1240.47 327.958L1242.32 323.314C1222.09 315.24 1206.51 302.908 1195.4 286.341L1191.25 289.126L1187.1 291.911C1199.42 310.288 1216.66 323.843 1238.61 332.602L1240.47 327.958ZM1191.25 289.126L1195.42 286.37C1184.48 269.815 1178.77 248.365 1178.67 221.671L1173.67 221.69L1168.67 221.71C1168.78 249.774 1174.79 273.281 1187.08 291.882L1191.25 289.126ZM1173.67 221.69V226.69H1258.05V221.69V216.69H1173.67V221.69ZM1258.05 221.69L1253.05 221.956C1253.62 232.652 1256.32 241.972 1261.38 249.682L1265.56 246.939L1269.74 244.196C1265.85 238.269 1263.54 230.757 1263.04 221.425L1258.05 221.69ZM1265.56 246.939L1261.38 249.682C1266.43 257.382 1273.51 263.156 1282.42 267.026L1284.41 262.44L1286.4 257.853C1279.12 254.692 1273.63 250.132 1269.74 244.196L1265.56 246.939ZM1284.41 262.44L1282.44 267.035C1291.41 270.878 1301.86 272.713 1313.66 272.713V267.713V262.713C1302.87 262.713 1293.82 261.032 1286.38 257.844L1284.41 262.44ZM1313.66 267.713V272.713C1323.51 272.713 1332.07 271.5 1339.19 268.892L1337.47 264.197L1335.75 259.503C1330.07 261.582 1322.76 262.713 1313.66 262.713V267.713ZM1337.47 264.197L1339.19 268.892C1346.2 266.32 1351.91 262.612 1355.92 257.561L1352.01 254.449L1348.09 251.338C1345.5 254.597 1341.52 257.387 1335.75 259.503L1337.47 264.197ZM1352.01 254.449L1355.92 257.561C1359.91 252.545 1361.99 246.745 1362.12 240.327L1357.12 240.227L1352.12 240.127C1352.04 244.363 1350.71 248.045 1348.09 251.338L1352.01 254.449ZM1357.12 240.227L1362.12 240.121C1361.99 233.982 1359.93 228.495 1355.96 223.87L1352.17 227.123L1348.37 230.377C1350.8 233.209 1352.04 236.458 1352.12 240.334L1357.12 240.227ZM1352.17 227.123L1356.06 223.987C1352.24 219.236 1346.27 215.421 1338.76 212.283L1336.83 216.896L1334.9 221.51C1341.67 224.337 1345.92 227.341 1348.27 230.26L1352.17 227.123ZM1336.83 216.896L1338.81 212.308C1331.26 209.038 1321.27 206.08 1308.97 203.383L1307.9 208.267L1306.83 213.151C1318.83 215.781 1328.12 218.575 1334.84 221.485L1336.83 216.896ZM1307.9 208.267L1308.96 203.379L1276.36 196.348L1275.3 201.236L1274.25 206.123L1306.85 213.155L1307.9 208.267ZM1275.3 201.236L1276.36 196.349C1247.95 190.186 1225.96 179.984 1210.05 165.999L1206.75 169.755L1203.45 173.51C1220.99 188.929 1244.7 199.714 1274.24 206.122L1275.3 201.236ZM1206.75 169.755L1210.08 166.022C1194.69 152.314 1186.88 133.582 1186.98 109.211L1181.98 109.19L1176.98 109.169C1176.87 135.935 1185.57 157.58 1203.42 173.488L1206.75 169.755ZM1181.98 109.19L1186.98 109.165C1186.88 89.3528 1192.14 72.2404 1202.66 57.6174L1198.6 54.6981L1194.54 51.7787C1182.68 68.2637 1176.87 87.4794 1176.98 109.216L1181.98 109.19ZM1198.6 54.6981L1202.66 57.6225C1213.36 42.7749 1228.22 31.1062 1247.43 22.6827L1245.42 18.1036L1243.41 13.5245C1222.78 22.5726 1206.42 35.3002 1194.54 51.7736L1198.6 54.6981ZM1245.42 18.1036L1247.42 22.6866C1266.71 14.2718 1288.97 9.9999 1314.3 9.9999V4.9999V-9.91821e-05C1287.85 -9.91821e-05 1264.19 4.46376 1243.42 13.5206L1245.42 18.1036ZM1314.3 4.9999V9.9999C1340.17 9.9999 1362.28 14.33 1380.77 22.8083L1382.85 18.2634L1384.93 13.7185C1364.86 4.51212 1341.26 -9.91821e-05 1314.3 -9.91821e-05V4.9999ZM1382.85 18.2634L1380.77 22.8083C1399.28 31.2988 1413.37 43.1707 1423.24 58.3789L1427.44 55.6569L1431.63 52.9349C1420.62 35.9697 1404.98 22.9127 1384.93 13.7185L1382.85 18.2634ZM1427.44 55.6569L1423.26 58.4111C1433.21 73.4872 1438.31 91.2105 1438.42 111.772L1443.42 111.747L1448.42 111.722C1448.3 89.457 1442.75 69.7868 1431.61 52.9027L1427.44 55.6569ZM1443.42 111.747V106.747H1358.4V111.747V116.747H1443.42V111.747Z" fill="white" fill-opacity="0.2"/>
</svg>
