<svg width="1522" height="276" viewBox="0 0 1522 276" fill="none" xmlns="http://www.w3.org/2000/svg">
<path d="M60.7239 213.504C60.7239 213.504 72.4668 90.0972 114.724 65.0156C173.084 30.3761 177.007 232.95 238.724 213.504C288.761 197.739 268.048 75.845 318.724 65.0156C376.631 52.641 368.379 206.472 426.724 213.504C490.903 221.24 490.801 53.7618 554.724 65.0156C610.644 74.8606 598.47 208.951 654.724 213.504C714.316 218.327 707.071 67.9371 766.724 65.0156C809.288 62.9311 849.986 133.744 871.307 178.311C876.384 188.925 893.895 187.827 897.623 176.667C911.263 135.834 936.991 74.4523 970.724 65.0156C1013.88 52.9426 1057.02 129.566 1079.26 177.297C1084.27 188.041 1102 186.915 1105.7 175.655C1119.31 134.293 1144.92 72.8292 1178.72 65.0156C1238.78 51.1352 1234.05 219.935 1294.72 213.504C1350.91 207.549 1339.51 49.0091 1394.72 65.0156C1441.86 78.681 1460.72 213.504 1460.72 213.504" stroke="white" stroke-width="122"/>
</svg>
