<svg width="1469" height="158" viewBox="0 0 1469 158" fill="none" xmlns="http://www.w3.org/2000/svg">
<path d="M24.1873 131.298C24.1873 131.298 161.754 6.38317 248.187 43.2976C276.238 55.278 306.258 87.4441 320.209 103.665C324.665 108.846 332.523 109.667 337.933 105.491C363.155 86.0211 432.355 37.2962 486.187 43.2976C529.257 48.0992 580.086 89.8933 598.798 106.519C603.153 110.388 609.558 110.877 614.395 107.63C646.322 86.1986 764.216 12.8398 840.187 43.2976C870.672 55.5193 904.783 88.6165 920.042 104.526C924.624 109.303 932.226 109.812 937.406 105.691C962.226 85.9504 1032.23 35.1601 1086.19 43.2976C1124.58 49.0869 1168.37 86.7411 1187.01 104.304C1192.08 109.079 1200.2 108.965 1205.17 104.089C1225 84.6419 1274.1 41.3179 1316.19 43.2976C1370.38 45.8465 1413.53 42.6107 1436.19 87.4752" stroke="white" stroke-width="72"/>
</svg>
