<svg width="1433" height="161" viewBox="0 0 1433 161" fill="none" xmlns="http://www.w3.org/2000/svg">
<path d="M13.012 101.086C13.012 101.086 73.4677 37.7806 121.012 38.3643C168.034 38.9417 199.012 101.086 199.012 101.086C199.012 101.086 250.632 11.6555 311.012 18.3643C365.688 24.4394 397.012 101.086 397.012 101.086C397.012 101.086 475.797 2.24431 537.012 28.3643C578.901 46.238 595.012 101.086 595.012 101.086C595.012 101.086 664.828 21.8971 723.012 38.3643C766.321 50.6216 797.012 101.086 797.012 101.086C797.012 101.086 845.852 30.6913 899.012 38.3643C945.045 45.0086 985.012 101.086 985.012 101.086C985.012 101.086 1047.58 27.4407 1109.01 38.3643C1158.5 47.1642 1209.01 101.086 1209.01 101.086C1209.01 101.086 1271.99 25.3764 1333.01 38.3643C1380.56 48.4842 1415.01 155.086 1415.01 155.086" stroke="white" stroke-width="36"/>
</svg>
